<?xml version="1.0" encoding="UTF-8" standalone="no"?>
<svg
   xmlns:dc="http://purl.org/dc/elements/1.1/"
   xmlns:cc="http://creativecommons.org/ns#"
   xmlns:rdf="http://www.w3.org/1999/02/22-rdf-syntax-ns#"
   xmlns:svg="http://www.w3.org/2000/svg"
   xmlns="http://www.w3.org/2000/svg"
   xmlns:sodipodi="http://sodipodi.sourceforge.net/DTD/sodipodi-0.dtd"
   xmlns:inkscape="http://www.inkscape.org/namespaces/inkscape"
   width="412.28189pt"
   height="300pt"
   viewBox="0 0 14544.389 10583.333"
   version="1.1"
   xml:space="preserve"
   id="svg2"
   inkscape:version="0.91 r"
   sodipodi:docname="I1_number_elderly.svg"
   style="stroke-width:28.22200012;stroke-linejoin:round"><metadata
     id="metadata232"><rdf:RDF><cc:Work
         rdf:about=""><dc:format>image/svg+xml</dc:format><dc:type
           rdf:resource="http://purl.org/dc/dcmitype/StillImage" /><dc:title></dc:title></cc:Work></rdf:RDF></metadata><defs
     id="defs230" /><sodipodi:namedview
     pagecolor="#ffffff"
     bordercolor="#666666"
     borderopacity="1"
     objecttolerance="10"
     gridtolerance="10"
     guidetolerance="10"
     inkscape:pageopacity="0"
     inkscape:pageshadow="2"
     inkscape:window-width="1366"
     inkscape:window-height="716"
     id="namedview228"
     showgrid="false"
     inkscape:zoom="1.2205195"
     inkscape:cx="277.02675"
     inkscape:cy="172.72443"
     inkscape:window-x="0"
     inkscape:window-y="0"
     inkscape:window-maximized="1"
     inkscape:current-layer="svg2"
     units="pt"
     height="300pt"
     inkscape:snap-bbox="true"
     inkscape:bbox-nodes="true"
     inkscape:snap-intersection-paths="true"
     showguides="true"
     inkscape:guide-bbox="true"><sodipodi:guide
       position="-7237.5376,11607.807"
       orientation="-0.70710678,0.70710678"
       id="guide8172" /></sodipodi:namedview><rect
     style="color:#000000;clip-rule:nonzero;display:inline;overflow:visible;visibility:visible;opacity:0.98000004;isolation:auto;mix-blend-mode:normal;color-interpolation:sRGB;color-interpolation-filters:linearRGB;solid-color:#000000;solid-opacity:1;fill:#ffffff;fill-opacity:1;fill-rule:nonzero;stroke:#387f89;stroke-width:35.27777481;stroke-linecap:square;stroke-linejoin:miter;stroke-miterlimit:4;stroke-dasharray:none;stroke-dashoffset:0;stroke-opacity:1;color-rendering:auto;image-rendering:auto;shape-rendering:auto;text-rendering:auto;enable-background:accumulate"
     id="rect8179"
     width="15954.955"
     height="8879.2783"
     x="-705.28345"
     y="852.02722" /><g
     id="g8181"
     transform="translate(-14.210695,1399.2284)"><rect
       y="154.25098"
       x="2960.8577"
       height="6239.6572"
       width="11095.761"
       id="rect8209"
       style="opacity:1;fill:none;fill-opacity:1;fill-rule:nonzero;stroke:#908c8a;stroke-width:35.42019653;stroke-linecap:round;stroke-linejoin:bevel;stroke-miterlimit:10;stroke-dasharray:none;stroke-dashoffset:0;stroke-opacity:1" /><path
       inkscape:connector-curvature="0"
       id="path8211"
       d="m 2965.0322,5344.4952 11091.5888,0"
       style="fill:#908c8a;fill-opacity:1;fill-rule:evenodd;stroke:#908c8a;stroke-width:21.16666603;stroke-linecap:butt;stroke-linejoin:miter;stroke-miterlimit:4;stroke-dasharray:none;stroke-opacity:1" /><path
       inkscape:connector-curvature="0"
       id="path8211-2"
       d="m 2965.0322,4300.2738 11091.5878,0"
       style="fill:#908c8a;fill-opacity:1;fill-rule:evenodd;stroke:#908c8a;stroke-width:21.16666412;stroke-linecap:butt;stroke-linejoin:miter;stroke-miterlimit:4;stroke-dasharray:none;stroke-opacity:1" /><path
       inkscape:connector-curvature="0"
       id="path8211-2-3"
       d="m 2965.0322,3256.0525 11091.5868,0"
       style="fill:#908c8a;fill-opacity:1;fill-rule:evenodd;stroke:#908c8a;stroke-width:21.16666222;stroke-linecap:butt;stroke-linejoin:miter;stroke-miterlimit:4;stroke-dasharray:none;stroke-opacity:1" /><path
       inkscape:connector-curvature="0"
       id="path8211-2-3-4"
       d="m 2965.0322,2211.8312 11091.5858,0"
       style="fill:#908c8a;fill-opacity:1;fill-rule:evenodd;stroke:#908c8a;stroke-width:21.16666031;stroke-linecap:butt;stroke-linejoin:miter;stroke-miterlimit:4;stroke-dasharray:none;stroke-opacity:1" /><path
       inkscape:connector-curvature="0"
       id="path8211-2-3-4-5"
       d="m 2965.0322,1167.6098 11091.5848,0"
       style="fill:#908c8a;fill-opacity:1;fill-rule:evenodd;stroke:#908c8a;stroke-width:21.1666584;stroke-linecap:butt;stroke-linejoin:miter;stroke-miterlimit:4;stroke-dasharray:none;stroke-opacity:1" /><path
       style="fill:none;stroke:#878787;stroke-width:22.79019928;stroke-linejoin:round"
       inkscape:connector-curvature="0"
       id="path10"
       d="m 4812.7914,6388.4622 0,-131.4822" /><path
       style="fill:none;stroke:#878787;stroke-width:22.79019928;stroke-linejoin:round"
       inkscape:connector-curvature="0"
       id="path12"
       d="m 6661.4273,6388.4622 0,-131.4822" /><path
       style="fill:none;stroke:#878787;stroke-width:22.79019928;stroke-linejoin:round"
       inkscape:connector-curvature="0"
       id="path14"
       d="m 8508.3101,6388.4622 0,-131.4822" /><path
       style="fill:none;stroke:#878787;stroke-width:22.79019928;stroke-linejoin:round"
       inkscape:connector-curvature="0"
       id="path16"
       d="m 10356.949,6388.4622 0,-131.4822" /><path
       style="fill:none;stroke:#878787;stroke-width:22.79019928;stroke-linejoin:round"
       inkscape:connector-curvature="0"
       id="path18"
       d="m 12204.708,6388.4622 0,-131.4822" /><path
       style="fill:#387f89;fill-opacity:1;stroke:none;stroke-width:33.81119919;stroke-linejoin:round"
       inkscape:connector-curvature="0"
       id="path42"
       d="m 3104.403,2903.3145 -0.8766,-6.1358 0,-6.1359 -0.8765,-6.1357 -0.8766,-6.1359 -0.8765,-6.1358 -1.7531,-5.2592 -1.7531,-6.1359 -1.753,-6.1358 -2.6297,-5.2593 -1.7531,-5.2594 -2.6297,-6.1358 -3.5061,-5.2592 -2.6297,-5.2593 -3.5061,-4.3827 -3.5062,-5.2593 -4.3828,-4.3827 -3.5061,-5.2592 -4.3828,-4.3828 -4.3827,-3.5063 -4.3827,-4.3826 -5.2594,-3.5062 -4.3827,-3.5062 -5.2593,-3.5062 -5.2592,-3.5061 -5.2593,-2.6297 -5.2592,-2.6297 -6.1359,-2.6296 -5.2593,-2.6296 -6.1358,-1.7531 -5.2592,-1.7531 -6.1359,-0.8765 -6.1358,-1.7532 -6.1359,-0.8764 -6.1358,-0.8766 -6.1358,0 -5.2593,0 -6.1358,0 -6.1359,0 -6.1357,0.8766 -6.1358,0.8764 -6.1359,1.7532 -6.1358,0.8765 -5.2593,1.7531 -6.1358,1.7531 -5.2593,2.6296 -6.1357,2.6296 -5.2594,2.6297 -5.2593,2.6297 -5.2593,3.5061 -5.2592,3.5062 -4.3827,3.5062 -5.2593,3.5062 -4.3827,4.3826 -4.3829,3.5063 -4.3825,4.3828 -3.5063,5.2592 -4.3827,4.3827 -3.5062,5.2593 -3.5062,4.3827 -2.6296,5.2593 -3.5062,5.2592 -2.6296,6.1358 -1.7532,5.2594 -2.6296,5.2593 -1.753,6.1358 -1.7531,6.1359 -1.7532,5.2592 -0.8765,6.1358 -0.8765,6.1359 -0.8766,6.1357 0,6.1359 0,6.1358 0,6.1358 0,6.1359 0.8766,6.1358 0.8765,5.2593 0.8765,6.1358 1.7532,6.1357 1.7531,6.1359 1.753,5.2593 2.6296,6.1358 1.7532,5.2594 2.6296,5.2592 3.5062,5.2593 2.6296,5.2592 3.5062,5.2593 3.5062,5.2592 4.3827,4.3829 3.5063,4.3826 4.3825,4.3828 4.3829,4.3827 4.3827,4.3828 5.2593,3.5062 4.3827,3.5061 5.2592,3.5061 5.2593,3.5063 5.2593,2.6297 5.2594,2.6296 6.1357,2.6296 5.2593,1.7532 6.1358,2.6296 5.2593,0.8765 6.1358,1.7531 6.1359,0.8765 6.1358,1.7531 6.1357,0 6.1359,0.8766 6.1358,0 5.2593,0 6.1358,-0.8766 6.1358,0 6.1359,-1.7531 6.1358,-0.8765 6.1359,-1.7531 5.2592,-0.8765 6.1358,-2.6296 5.2593,-1.7532 6.1359,-2.6296 5.2592,-2.6296 5.2593,-2.6297 5.2592,-3.5063 5.2593,-3.5061 4.3827,-3.5061 5.2594,-3.5062 4.3827,-4.3828 4.3827,-4.3827 4.3828,-4.3828 3.5061,-4.3826 4.3828,-4.3829 3.5062,-5.2592 3.5061,-5.2593 2.6297,-5.2592 3.5061,-5.2593 2.6297,-5.2592 1.7531,-5.2594 2.6297,-6.1358 1.753,-5.2593 1.7531,-6.1359 1.7531,-6.1357 0.8765,-6.1358 0.8766,-5.2593 0.8765,-6.1358 0,-6.1359 0.8766,-6.1358 z" /><path
       style="fill:#387f89;fill-opacity:1;stroke:none"
       inkscape:connector-curvature="0"
       id="path44"
       d="m 4952.1623,2832.3143 0,-6.1358 -0.8765,-6.1358 0,-6.1359 -0.8766,-6.1358 -1.7531,-5.2592 -0.8765,-6.1359 -1.7531,-6.1359 -2.6296,-5.2592 -1.7532,-6.1358 -2.6296,-5.2593 -2.6296,-5.2593 -2.6297,-5.2594 -3.5061,-5.2592 -3.5062,-5.2592 -3.5062,-5.2593 -3.5062,-4.3828 -4.3827,-4.3826 -4.3827,-4.3828 -4.3828,-4.3827 -4.3827,-4.3828 -4.3828,-3.5061 -5.2592,-3.5061 -5.2593,-3.5063 -4.3827,-3.5062 -6.1359,-2.6297 -5.2593,-2.6296 -5.2592,-2.6296 -6.1358,-1.7531 -5.2593,-2.6296 -6.1358,-1.7531 -6.1358,-0.8766 -5.2593,-1.753 -6.1359,-0.8766 -6.1358,0 -6.1358,-0.8766 -6.1359,0 -6.1358,0 -6.1358,0.8766 -6.1357,0 -6.1358,0.8766 -5.2594,1.753 -6.1358,0.8766 -6.1358,1.7531 -5.2594,2.6296 -6.1357,1.7531 -5.2593,2.6296 -5.2594,2.6296 -5.2592,2.6297 -5.2593,3.5062 -5.2592,3.5063 -5.2593,3.5061 -4.3827,3.5061 -4.3828,4.3828 -4.3827,4.3827 -4.3827,4.3828 -4.3828,4.3826 -3.5062,4.3828 -3.5061,5.2593 -3.5063,5.2592 -3.5061,5.2592 -2.6296,5.2594 -2.6296,5.2593 -2.6298,5.2593 -1.753,6.1358 -2.6296,5.2592 -1.7531,6.1359 -0.8766,6.1359 -1.7531,5.2592 -0.8765,6.1358 0,6.1359 -0.8766,6.1358 0,6.1358 0,6.1357 0.8766,6.1358 0,6.136 0.8765,6.1358 1.7531,5.2592 0.8766,6.1358 1.7531,6.1359 2.6296,5.2592 1.753,6.1359 2.6298,5.2592 2.6296,5.2593 2.6296,6.1359 3.5061,4.3827 3.5063,5.2592 3.5061,5.2593 3.5062,4.3828 4.3828,4.3827 4.3827,4.3827 4.3827,4.3828 4.3828,4.3826 4.3827,3.5063 5.2593,3.5062 5.2592,3.5061 5.2593,3.5062 5.2592,2.6297 5.2594,2.6296 5.2593,2.6296 6.1357,1.7532 5.2594,2.6296 6.1358,1.7531 6.1358,0.8765 5.2594,1.7531 6.1358,0.8766 6.1357,0 6.1358,0.8765 6.1358,0 6.1359,0 6.1358,-0.8765 6.1358,0 6.1359,-0.8766 5.2593,-1.7531 6.1358,-0.8765 6.1358,-1.7531 5.2593,-2.6296 6.1358,-1.7532 5.2592,-2.6296 5.2593,-2.6296 6.1359,-2.6297 4.3827,-3.5062 5.2593,-3.5061 5.2592,-3.5062 4.3828,-3.5063 4.3827,-4.3826 4.3828,-4.3828 4.3827,-4.3827 4.3827,-4.3827 3.5062,-4.3828 3.5062,-5.2593 3.5062,-5.2592 3.5061,-4.3827 2.6297,-6.1359 2.6296,-5.2593 2.6296,-5.2592 1.7532,-6.1359 2.6296,-5.2592 1.7531,-6.1359 0.8765,-6.1358 1.7531,-5.2592 0.8766,-6.1358 0,-6.136 0.8765,-6.1358 0,-6.1357 z" /><path
       style="fill:#387f89;fill-opacity:1;stroke:none;stroke-width:33.81119919;stroke-linejoin:round"
       inkscape:connector-curvature="0"
       id="path46"
       d="m 4952.1623,2832.3143 0,-6.1358 -0.8765,-6.1358 0,-6.1359 -0.8766,-6.1358 -1.7531,-5.2592 -0.8765,-6.1359 -1.7531,-6.1359 -2.6296,-5.2592 -1.7532,-6.1358 -2.6296,-5.2593 -2.6296,-5.2593 -2.6297,-5.2594 -3.5061,-5.2592 -3.5062,-5.2592 -3.5062,-5.2593 -3.5062,-4.3828 -4.3827,-4.3826 -4.3827,-4.3828 -4.3828,-4.3827 -4.3827,-4.3828 -4.3828,-3.5061 -5.2592,-3.5061 -5.2593,-3.5063 -4.3827,-3.5062 -6.1359,-2.6297 -5.2593,-2.6296 -5.2592,-2.6296 -6.1358,-1.7531 -5.2593,-2.6296 -6.1358,-1.7531 -6.1358,-0.8766 -5.2593,-1.753 -6.1359,-0.8766 -6.1358,0 -6.1358,-0.8766 -6.1359,0 -6.1358,0 -6.1358,0.8766 -6.1357,0 -6.1358,0.8766 -5.2594,1.753 -6.1358,0.8766 -6.1358,1.7531 -5.2594,2.6296 -6.1357,1.7531 -5.2593,2.6296 -5.2594,2.6296 -5.2592,2.6297 -5.2593,3.5062 -5.2592,3.5063 -5.2593,3.5061 -4.3827,3.5061 -4.3828,4.3828 -4.3827,4.3827 -4.3827,4.3828 -4.3828,4.3826 -3.5062,4.3828 -3.5061,5.2593 -3.5063,5.2592 -3.5061,5.2592 -2.6296,5.2594 -2.6296,5.2593 -2.6298,5.2593 -1.753,6.1358 -2.6296,5.2592 -1.7531,6.1359 -0.8766,6.1359 -1.7531,5.2592 -0.8765,6.1358 0,6.1359 -0.8766,6.1358 0,6.1358 0,6.1357 0.8766,6.1358 0,6.136 0.8765,6.1358 1.7531,5.2592 0.8766,6.1358 1.7531,6.1359 2.6296,5.2592 1.753,6.1359 2.6298,5.2592 2.6296,5.2593 2.6296,6.1359 3.5061,4.3827 3.5063,5.2592 3.5061,5.2593 3.5062,4.3828 4.3828,4.3827 4.3827,4.3827 4.3827,4.3828 4.3828,4.3826 4.3827,3.5063 5.2593,3.5062 5.2592,3.5061 5.2593,3.5062 5.2592,2.6297 5.2594,2.6296 5.2593,2.6296 6.1357,1.7532 5.2594,2.6296 6.1358,1.7531 6.1358,0.8765 5.2594,1.7531 6.1358,0.8766 6.1357,0 6.1358,0.8765 6.1358,0 6.1359,0 6.1358,-0.8765 6.1358,0 6.1359,-0.8766 5.2593,-1.7531 6.1358,-0.8765 6.1358,-1.7531 5.2593,-2.6296 6.1358,-1.7532 5.2592,-2.6296 5.2593,-2.6296 6.1359,-2.6297 4.3827,-3.5062 5.2593,-3.5061 5.2592,-3.5062 4.3828,-3.5063 4.3827,-4.3826 4.3828,-4.3828 4.3827,-4.3827 4.3827,-4.3827 3.5062,-4.3828 3.5062,-5.2593 3.5062,-5.2592 3.5061,-4.3827 2.6297,-6.1359 2.6296,-5.2593 2.6296,-5.2592 1.7532,-6.1359 2.6296,-5.2592 1.7531,-6.1359 0.8765,-6.1358 1.7531,-5.2592 0.8766,-6.1358 0,-6.136 0.8765,-6.1358 0,-6.1357 z" /><path
       style="fill:#387f89;fill-opacity:1;stroke:none"
       inkscape:connector-curvature="0"
       id="path48"
       d="m 6800.7981,2756.0548 -0.8765,-6.1359 0,-6.1358 -0.8764,-6.1358 -0.8767,-6.1358 -0.8766,-6.1359 -1.753,-5.2593 -1.753,-6.1358 -1.7532,-5.2593 -2.6296,-6.1358 -1.7531,-5.2592 -2.6297,-6.1358 -3.5061,-5.2593 -2.6296,-5.2592 -3.5062,-4.3829 -3.5062,-5.2592 -4.3827,-4.3827 -3.5062,-5.2593 -4.3829,-4.3827 -4.3826,-3.5062 -4.3828,-4.3828 -5.2592,-3.5061 -4.3827,-3.5062 -5.2594,-3.5063 -5.2593,-3.5061 -5.2592,-2.6297 -5.2593,-2.6296 -6.1358,-2.6297 -5.2593,-2.6296 -6.1358,-1.7531 -5.2592,-1.7531 -6.1358,-0.8765 -6.1359,-1.7531 -6.1359,-0.8765 -6.1358,0 -6.1358,-0.8766 -5.2593,0 -6.1358,0 -6.1358,0.8766 -6.1358,0 -6.1358,0.8765 -6.1359,1.7531 -6.1358,0.8765 -5.2593,1.7531 -6.1358,1.7531 -5.2593,2.6296 -6.1358,2.6297 -5.2592,2.6296 -5.2593,2.6297 -5.2593,3.5061 -5.2593,3.5063 -4.3827,3.5062 -5.2593,3.5061 -4.3828,4.3828 -4.3827,3.5062 -4.3827,4.3827 -3.5062,5.2593 -4.3827,4.3827 -3.5062,5.2592 -3.5063,4.3829 -2.6296,5.2592 -3.5061,5.2593 -2.6297,6.1358 -1.7531,5.2592 -2.6296,6.1358 -1.753,5.2593 -1.7532,6.1358 -1.7531,5.2593 -0.8765,6.1359 -0.8766,6.1358 -0.8765,6.1358 0,6.1358 0,6.1359 0,6.1359 0,6.1357 0.8765,6.1358 0.8766,6.1358 0.8765,5.2593 1.7531,6.1358 1.7532,6.1358 1.753,5.2593 2.6296,6.1358 1.7531,5.2593 2.6297,5.2594 3.5061,5.2592 2.6296,5.2593 3.5063,5.2592 3.5062,5.2593 4.3827,4.3828 3.5062,4.3827 4.3827,4.3828 4.3827,4.3827 4.3828,4.3827 5.2593,3.5062 4.3827,3.5062 5.2593,3.5061 5.2593,3.5062 5.2593,2.6296 5.2592,2.6296 6.1358,2.6298 5.2593,1.7531 6.1358,2.6296 5.2593,0.8765 6.1358,1.7531 6.1359,0.8765 6.1358,1.7532 6.1358,0 6.1358,0.8765 6.1358,0 5.2593,0 6.1358,-0.8765 6.1358,0 6.1359,-1.7532 6.1359,-0.8765 6.1358,-1.7531 5.2592,-0.8765 6.1358,-2.6296 5.2593,-1.7531 6.1358,-2.6298 5.2593,-2.6296 5.2592,-2.6296 5.2593,-3.5062 5.2594,-3.5061 4.3827,-3.5062 5.2592,-3.5062 4.3828,-4.3827 4.3826,-4.3827 4.3829,-4.3828 3.5062,-4.3827 4.3827,-4.3828 3.5062,-5.2593 3.5062,-5.2592 2.6296,-5.2593 3.5061,-5.2592 2.6297,-5.2594 1.7531,-5.2593 2.6296,-6.1358 1.7532,-5.2593 1.753,-6.1358 1.753,-6.1358 0.8766,-5.2593 0.8767,-6.1358 0.8764,-6.1358 0,-6.1357 0.8765,-6.1359 z" /><path
       style="fill:#387f89;fill-opacity:1;stroke:none;stroke-width:33.81119919;stroke-linejoin:round"
       inkscape:connector-curvature="0"
       id="path50"
       d="m 6800.7981,2756.0548 -0.8765,-6.1359 0,-6.1358 -0.8764,-6.1358 -0.8767,-6.1358 -0.8766,-6.1359 -1.753,-5.2593 -1.753,-6.1358 -1.7532,-5.2593 -2.6296,-6.1358 -1.7531,-5.2592 -2.6297,-6.1358 -3.5061,-5.2593 -2.6296,-5.2592 -3.5062,-4.3829 -3.5062,-5.2592 -4.3827,-4.3827 -3.5062,-5.2593 -4.3829,-4.3827 -4.3826,-3.5062 -4.3828,-4.3828 -5.2592,-3.5061 -4.3827,-3.5062 -5.2594,-3.5063 -5.2593,-3.5061 -5.2592,-2.6297 -5.2593,-2.6296 -6.1358,-2.6297 -5.2593,-2.6296 -6.1358,-1.7531 -5.2592,-1.7531 -6.1358,-0.8765 -6.1359,-1.7531 -6.1359,-0.8765 -6.1358,0 -6.1358,-0.8766 -5.2593,0 -6.1358,0 -6.1358,0.8766 -6.1358,0 -6.1358,0.8765 -6.1359,1.7531 -6.1358,0.8765 -5.2593,1.7531 -6.1358,1.7531 -5.2593,2.6296 -6.1358,2.6297 -5.2592,2.6296 -5.2593,2.6297 -5.2593,3.5061 -5.2593,3.5063 -4.3827,3.5062 -5.2593,3.5061 -4.3828,4.3828 -4.3827,3.5062 -4.3827,4.3827 -3.5062,5.2593 -4.3827,4.3827 -3.5062,5.2592 -3.5063,4.3829 -2.6296,5.2592 -3.5061,5.2593 -2.6297,6.1358 -1.7531,5.2592 -2.6296,6.1358 -1.753,5.2593 -1.7532,6.1358 -1.7531,5.2593 -0.8765,6.1359 -0.8766,6.1358 -0.8765,6.1358 0,6.1358 0,6.1359 0,6.1359 0,6.1357 0.8765,6.1358 0.8766,6.1358 0.8765,5.2593 1.7531,6.1358 1.7532,6.1358 1.753,5.2593 2.6296,6.1358 1.7531,5.2593 2.6297,5.2594 3.5061,5.2592 2.6296,5.2593 3.5063,5.2592 3.5062,5.2593 4.3827,4.3828 3.5062,4.3827 4.3827,4.3828 4.3827,4.3827 4.3828,4.3827 5.2593,3.5062 4.3827,3.5062 5.2593,3.5061 5.2593,3.5062 5.2593,2.6296 5.2592,2.6296 6.1358,2.6298 5.2593,1.7531 6.1358,2.6296 5.2593,0.8765 6.1358,1.7531 6.1359,0.8765 6.1358,1.7532 6.1358,0 6.1358,0.8765 6.1358,0 5.2593,0 6.1358,-0.8765 6.1358,0 6.1359,-1.7532 6.1359,-0.8765 6.1358,-1.7531 5.2592,-0.8765 6.1358,-2.6296 5.2593,-1.7531 6.1358,-2.6298 5.2593,-2.6296 5.2592,-2.6296 5.2593,-3.5062 5.2594,-3.5061 4.3827,-3.5062 5.2592,-3.5062 4.3828,-4.3827 4.3826,-4.3827 4.3829,-4.3828 3.5062,-4.3827 4.3827,-4.3828 3.5062,-5.2593 3.5062,-5.2592 2.6296,-5.2593 3.5061,-5.2592 2.6297,-5.2594 1.7531,-5.2593 2.6296,-6.1358 1.7532,-5.2593 1.753,-6.1358 1.753,-6.1358 0.8766,-5.2593 0.8767,-6.1358 0.8764,-6.1358 0,-6.1357 0.8765,-6.1359 z" /><path
       style="fill:#387f89;fill-opacity:1;stroke:none"
       inkscape:connector-curvature="0"
       id="path52"
       d="m 8647.681,2682.4249 0,-6.1359 -0.8766,-6.1358 0,-6.1357 -0.8766,-6.136 -1.753,-6.1358 -0.8766,-5.2592 -1.753,-6.1358 -2.6297,-6.1359 -1.7531,-5.2592 -2.6296,-5.2593 -2.6297,-6.1358 -2.6296,-5.2593 -3.5062,-5.2593 -3.5062,-4.3827 -3.5062,-5.2593 -3.5061,-4.3827 -4.3828,-5.2593 -4.3827,-4.3828 -4.3828,-3.5061 -4.3826,-4.3827 -4.3828,-3.5062 -5.2593,-3.5062 -5.2592,-3.5062 -4.3828,-3.5062 -6.1358,-2.6296 -5.2592,-2.6297 -5.2594,-2.6296 -6.1358,-2.6296 -5.2592,-1.7532 -6.1359,-1.753 -6.1358,-0.8767 -5.2593,-1.7529 -6.1358,-0.8767 -6.1358,-0.8765 -6.1358,0 -6.1359,0 -6.1358,0 -6.1358,0 -6.1358,0.8765 -6.1359,0.8767 -5.2593,1.7529 -6.1357,0.8767 -6.1359,1.753 -5.2593,1.7532 -6.1357,2.6296 -5.2594,2.6296 -5.2592,2.6297 -5.2593,2.6296 -5.2592,3.5062 -5.2594,3.5062 -5.2593,3.5062 -4.3827,3.5062 -4.3827,4.3827 -4.3827,3.5061 -4.3828,4.3828 -4.3827,5.2593 -3.5062,4.3827 -3.5062,5.2593 -3.5062,4.3827 -3.506,5.2593 -2.6297,5.2593 -2.6297,6.1358 -2.6297,5.2593 -1.7531,5.2592 -2.6296,6.1359 -1.7531,6.1358 -0.8765,5.2592 -1.7531,6.1358 -0.8765,6.136 0,6.1357 -0.8766,6.1358 0,6.1359 0,6.1358 0.8766,6.1359 0,6.1358 0.8765,5.2592 1.7531,6.1358 0.8765,6.136 1.7531,6.1358 2.6296,5.2592 1.7531,6.1358 2.6297,5.2593 2.6297,5.2592 2.6297,5.2593 3.506,5.2593 3.5062,5.2594 3.5062,5.2592 3.5062,4.3827 4.3827,4.3828 4.3828,4.3826 4.3827,4.3828 4.3827,4.3827 4.3827,3.5062 5.2593,3.5062 5.2594,3.5062 5.2592,3.5061 5.2593,2.6297 5.2592,2.6297 5.2594,2.6296 6.1357,1.7531 5.2593,1.753 6.1359,1.7532 6.1357,1.753 5.2593,0.8766 6.1359,0.8766 6.1358,0.8764 6.1358,0.8766 6.1358,0 6.1359,0 6.1358,-0.8766 6.1358,-0.8764 6.1358,-0.8766 5.2593,-0.8766 6.1358,-1.753 6.1359,-1.7532 5.2592,-1.753 6.1358,-1.7531 5.2594,-2.6296 5.2592,-2.6297 6.1358,-2.6297 4.3828,-3.5061 5.2592,-3.5062 5.2593,-3.5062 4.3828,-3.5062 4.3826,-4.3827 4.3828,-4.3828 4.3827,-4.3826 4.3828,-4.3828 3.5061,-4.3827 3.5062,-5.2592 3.5062,-5.2594 3.5062,-5.2593 2.6296,-5.2593 2.6297,-5.2592 2.6296,-5.2593 1.7531,-6.1358 2.6297,-5.2592 1.753,-6.1358 0.8766,-6.136 1.753,-6.1358 0.8766,-5.2592 0,-6.1358 0.8766,-6.1359 0,-6.1358 z" /><path
       style="fill:#387f89;fill-opacity:1;stroke:none;stroke-width:33.81119919;stroke-linejoin:round"
       inkscape:connector-curvature="0"
       id="path54"
       d="m 8647.681,2682.4249 0,-6.1359 -0.8766,-6.1358 0,-6.1357 -0.8766,-6.136 -1.753,-6.1358 -0.8766,-5.2592 -1.753,-6.1358 -2.6297,-6.1359 -1.7531,-5.2592 -2.6296,-5.2593 -2.6297,-6.1358 -2.6296,-5.2593 -3.5062,-5.2593 -3.5062,-4.3827 -3.5062,-5.2593 -3.5061,-4.3827 -4.3828,-5.2593 -4.3827,-4.3828 -4.3828,-3.5061 -4.3826,-4.3827 -4.3828,-3.5062 -5.2593,-3.5062 -5.2592,-3.5062 -4.3828,-3.5062 -6.1358,-2.6296 -5.2592,-2.6297 -5.2594,-2.6296 -6.1358,-2.6296 -5.2592,-1.7532 -6.1359,-1.753 -6.1358,-0.8767 -5.2593,-1.7529 -6.1358,-0.8767 -6.1358,-0.8765 -6.1358,0 -6.1359,0 -6.1358,0 -6.1358,0 -6.1358,0.8765 -6.1359,0.8767 -5.2593,1.7529 -6.1357,0.8767 -6.1359,1.753 -5.2593,1.7532 -6.1357,2.6296 -5.2594,2.6296 -5.2592,2.6297 -5.2593,2.6296 -5.2592,3.5062 -5.2594,3.5062 -5.2593,3.5062 -4.3827,3.5062 -4.3827,4.3827 -4.3827,3.5061 -4.3828,4.3828 -4.3827,5.2593 -3.5062,4.3827 -3.5062,5.2593 -3.5062,4.3827 -3.506,5.2593 -2.6297,5.2593 -2.6297,6.1358 -2.6297,5.2593 -1.7531,5.2592 -2.6296,6.1359 -1.7531,6.1358 -0.8765,5.2592 -1.7531,6.1358 -0.8765,6.136 0,6.1357 -0.8766,6.1358 0,6.1359 0,6.1358 0.8766,6.1359 0,6.1358 0.8765,5.2592 1.7531,6.1358 0.8765,6.136 1.7531,6.1358 2.6296,5.2592 1.7531,6.1358 2.6297,5.2593 2.6297,5.2592 2.6297,5.2593 3.506,5.2593 3.5062,5.2594 3.5062,5.2592 3.5062,4.3827 4.3827,4.3828 4.3828,4.3826 4.3827,4.3828 4.3827,4.3827 4.3827,3.5062 5.2593,3.5062 5.2594,3.5062 5.2592,3.5061 5.2593,2.6297 5.2592,2.6297 5.2594,2.6296 6.1357,1.7531 5.2593,1.753 6.1359,1.7532 6.1357,1.753 5.2593,0.8766 6.1359,0.8766 6.1358,0.8764 6.1358,0.8766 6.1358,0 6.1359,0 6.1358,-0.8766 6.1358,-0.8764 6.1358,-0.8766 5.2593,-0.8766 6.1358,-1.753 6.1359,-1.7532 5.2592,-1.753 6.1358,-1.7531 5.2594,-2.6296 5.2592,-2.6297 6.1358,-2.6297 4.3828,-3.5061 5.2592,-3.5062 5.2593,-3.5062 4.3828,-3.5062 4.3826,-4.3827 4.3828,-4.3828 4.3827,-4.3826 4.3828,-4.3828 3.5061,-4.3827 3.5062,-5.2592 3.5062,-5.2594 3.5062,-5.2593 2.6296,-5.2593 2.6297,-5.2592 2.6296,-5.2593 1.7531,-6.1358 2.6297,-5.2592 1.753,-6.1358 0.8766,-6.136 1.753,-6.1358 0.8766,-5.2592 0,-6.1358 0.8766,-6.1359 0,-6.1358 z" /><path
       style="fill:#387f89;fill-opacity:1;stroke:none"
       inkscape:connector-curvature="0"
       id="path56"
       d="m 10496.319,2593.0172 -0.876,-6.1359 0,-5.2593 -0.876,-6.1357 -0.877,-6.1358 -0.876,-6.1359 -1.753,-6.1358 -1.754,-5.2593 -1.752,-6.1358 -2.63,-5.2593 -1.754,-6.1358 -2.629,-5.2594 -3.506,-5.2592 -2.629,-5.2592 -3.507,-5.2593 -3.506,-4.3828 -4.383,-5.2592 -3.506,-4.3827 -4.383,-4.3828 -4.383,-4.3827 -4.383,-3.5062 -5.258,-4.3828 -4.383,-3.5062 -5.26,-3.5061 -5.259,-2.6296 -5.259,-3.5062 -5.259,-2.6296 -6.136,-1.7533 -5.259,-2.6296 -6.136,-1.7529 -5.259,-1.7532 -6.136,-1.7531 -6.136,-0.8766 -6.135,-0.8764 -6.137,-0.8767 -6.135,0 -5.26,-0.8765 -6.136,0.8765 -6.136,0 -6.136,0.8767 -6.136,0.8764 -6.135,0.8766 -6.136,1.7531 -5.259,1.7532 -6.136,1.7529 -5.259,2.6296 -6.136,1.7533 -5.26,2.6296 -5.259,3.5062 -5.259,2.6296 -5.259,3.5061 -4.382,3.5062 -5.26,4.3828 -4.383,3.5062 -4.382,4.3827 -4.383,4.3828 -3.507,4.3827 -4.382,5.2592 -3.506,4.3828 -3.507,5.2593 -2.629,5.2592 -3.507,5.2592 -2.629,5.2594 -1.753,6.1358 -2.63,5.2593 -1.753,6.1358 -1.753,5.2593 -1.753,6.1358 -0.876,6.1359 -0.877,6.1358 -0.876,6.1357 0,5.2593 0,6.1359 0,6.1358 0,6.1358 0.876,6.1358 0.877,6.1359 0.876,6.1358 1.753,6.1358 1.753,5.2593 1.753,6.1357 2.63,5.2594 1.753,6.1358 2.629,5.2592 3.507,5.2594 2.629,5.2592 3.507,5.2593 3.506,4.3827 4.382,5.2594 3.507,4.3826 4.383,4.3828 4.382,4.3827 4.383,3.5062 5.26,4.3828 4.382,3.5061 5.259,3.5062 5.259,2.6296 5.259,2.6296 5.26,3.5062 6.136,1.7532 5.259,2.6297 6.136,1.753 5.259,1.753 6.136,1.7532 6.135,0.8765 6.136,0.8766 6.136,0.8765 6.136,0 6.136,0 5.26,0 6.135,0 6.137,-0.8765 6.135,-0.8766 6.136,-0.8765 6.136,-1.7532 5.259,-1.753 6.136,-1.753 5.259,-2.6297 6.136,-1.7532 5.259,-3.5062 5.259,-2.6296 5.259,-2.6296 5.26,-3.5062 4.383,-3.5061 5.258,-4.3828 4.383,-3.5062 4.383,-4.3827 4.383,-4.3828 3.506,-4.3826 4.383,-5.2594 3.506,-4.3827 3.507,-5.2593 2.629,-5.2592 3.506,-5.2594 2.629,-5.2592 1.754,-6.1358 2.63,-5.2594 1.752,-6.1357 1.754,-5.2593 1.753,-6.1358 0.876,-6.1358 0.877,-6.1359 0.876,-6.1358 0,-6.1358 0.876,-6.1358 z" /><path
       style="fill:#387f89;fill-opacity:1;stroke:none;stroke-width:33.81119919;stroke-linejoin:round"
       inkscape:connector-curvature="0"
       id="path58"
       d="m 10496.319,2593.0172 -0.876,-6.1359 0,-5.2593 -0.876,-6.1357 -0.877,-6.1358 -0.876,-6.1359 -1.753,-6.1358 -1.754,-5.2593 -1.752,-6.1358 -2.63,-5.2593 -1.754,-6.1358 -2.629,-5.2594 -3.506,-5.2592 -2.629,-5.2592 -3.507,-5.2593 -3.506,-4.3828 -4.383,-5.2592 -3.506,-4.3827 -4.383,-4.3828 -4.383,-4.3827 -4.383,-3.5062 -5.258,-4.3828 -4.383,-3.5062 -5.26,-3.5061 -5.259,-2.6296 -5.259,-3.5062 -5.259,-2.6296 -6.136,-1.7533 -5.259,-2.6296 -6.136,-1.7529 -5.259,-1.7532 -6.136,-1.7531 -6.136,-0.8766 -6.135,-0.8764 -6.137,-0.8767 -6.135,0 -5.26,-0.8765 -6.136,0.8765 -6.136,0 -6.136,0.8767 -6.136,0.8764 -6.135,0.8766 -6.136,1.7531 -5.259,1.7532 -6.136,1.7529 -5.259,2.6296 -6.136,1.7533 -5.26,2.6296 -5.259,3.5062 -5.259,2.6296 -5.259,3.5061 -4.382,3.5062 -5.26,4.3828 -4.383,3.5062 -4.382,4.3827 -4.383,4.3828 -3.507,4.3827 -4.382,5.2592 -3.506,4.3828 -3.507,5.2593 -2.629,5.2592 -3.507,5.2592 -2.629,5.2594 -1.753,6.1358 -2.63,5.2593 -1.753,6.1358 -1.753,5.2593 -1.753,6.1358 -0.876,6.1359 -0.877,6.1358 -0.876,6.1357 0,5.2593 0,6.1359 0,6.1358 0,6.1358 0.876,6.1358 0.877,6.1359 0.876,6.1358 1.753,6.1358 1.753,5.2593 1.753,6.1357 2.63,5.2594 1.753,6.1358 2.629,5.2592 3.507,5.2594 2.629,5.2592 3.507,5.2593 3.506,4.3827 4.382,5.2594 3.507,4.3826 4.383,4.3828 4.382,4.3827 4.383,3.5062 5.26,4.3828 4.382,3.5061 5.259,3.5062 5.259,2.6296 5.259,2.6296 5.26,3.5062 6.136,1.7532 5.259,2.6297 6.136,1.753 5.259,1.753 6.136,1.7532 6.135,0.8765 6.136,0.8766 6.136,0.8765 6.136,0 6.136,0 5.26,0 6.135,0 6.137,-0.8765 6.135,-0.8766 6.136,-0.8765 6.136,-1.7532 5.259,-1.753 6.136,-1.753 5.259,-2.6297 6.136,-1.7532 5.259,-3.5062 5.259,-2.6296 5.259,-2.6296 5.26,-3.5062 4.383,-3.5061 5.258,-4.3828 4.383,-3.5062 4.383,-4.3827 4.383,-4.3828 3.506,-4.3826 4.383,-5.2594 3.506,-4.3827 3.507,-5.2593 2.629,-5.2592 3.506,-5.2594 2.629,-5.2592 1.754,-6.1358 2.63,-5.2594 1.752,-6.1357 1.754,-5.2593 1.753,-6.1358 0.876,-6.1358 0.877,-6.1359 0.876,-6.1358 0,-6.1358 0.876,-6.1358 z" /><path
       style="fill:#387f89;fill-opacity:1;stroke:none"
       inkscape:connector-curvature="0"
       id="path60"
       d="m 12344.079,2057.4474 0,-6.1358 -0.876,-6.1358 0,-6.1358 -0.877,-5.2594 -1.753,-6.1357 -0.877,-6.1358 -1.753,-6.1359 -2.629,-5.2593 -1.753,-6.1358 -2.63,-5.2592 -2.63,-5.2594 -2.629,-5.2592 -3.507,-5.2593 -3.505,-5.2593 -3.507,-5.2592 -3.506,-4.3827 -4.383,-4.3828 -4.382,-4.3827 -4.384,-4.3827 -4.382,-4.3828 -4.383,-3.5062 -5.259,-3.5061 -5.259,-3.5062 -4.383,-3.5063 -6.136,-2.6296 -5.26,-2.6296 -5.259,-2.6297 -6.135,-1.753 -5.26,-2.6296 -6.135,-0.8766 -6.137,-1.753 -5.258,-0.8767 -6.137,-1.7531 -6.135,0 -6.136,-0.8765 -6.136,0 -6.135,0 -6.137,0.8765 -6.135,0 -6.137,1.7531 -5.258,0.8767 -6.136,1.753 -6.135,0.8766 -5.26,2.6296 -6.136,1.753 -5.259,2.6297 -5.26,2.6296 -5.259,2.6296 -5.259,3.5063 -5.259,3.5062 -5.259,3.5061 -4.383,3.5062 -4.383,4.3828 -4.383,4.3827 -4.383,4.3827 -4.383,4.3828 -3.506,4.3827 -3.506,5.2592 -3.506,5.2593 -3.507,5.2593 -2.629,5.2592 -2.63,5.2594 -2.63,5.2592 -1.752,6.1358 -2.63,5.2593 -1.753,6.1359 -0.876,6.1358 -1.754,6.1357 -0.876,5.2594 0,6.1358 -0.877,6.1358 0,6.1358 0,6.1359 0.877,6.1358 0,6.1359 0.876,6.1358 1.754,6.1358 0.876,5.2593 1.753,6.1358 2.63,5.2593 1.752,6.1358 2.63,5.2593 2.63,6.1358 2.629,5.2593 3.507,5.2592 3.506,4.3828 3.506,5.2592 3.506,4.3827 4.383,5.2594 4.383,4.3826 4.383,3.5063 4.383,4.3826 4.383,3.5063 5.259,3.5062 5.259,3.5062 5.259,3.5061 5.259,2.6296 5.26,2.6297 5.259,2.6296 6.136,2.6297 5.26,1.753 6.135,1.7532 6.136,0.8764 5.258,1.7533 6.137,0.8765 6.135,0.8764 6.137,0 6.135,0 6.136,0 6.136,0 6.135,-0.8764 6.137,-0.8765 5.258,-1.7533 6.137,-0.8764 6.135,-1.7532 5.26,-1.753 6.135,-2.6297 5.259,-2.6296 5.26,-2.6297 6.136,-2.6296 4.383,-3.5061 5.259,-3.5062 5.259,-3.5062 4.383,-3.5063 4.382,-4.3826 4.384,-3.5063 4.382,-4.3826 4.383,-5.2594 3.506,-4.3827 3.507,-5.2592 3.505,-4.3828 3.507,-5.2592 2.629,-5.2593 2.63,-6.1358 2.63,-5.2593 1.753,-6.1358 2.629,-5.2593 1.753,-6.1358 0.877,-5.2593 1.753,-6.1358 0.877,-6.1358 0,-6.1359 0.876,-6.1358 0,-6.1359 z" /><path
       style="fill:#387f89;fill-opacity:1;stroke:none;stroke-width:33.81119919;stroke-linejoin:round"
       inkscape:connector-curvature="0"
       id="path62"
       d="m 12344.079,2057.4474 0,-6.1358 -0.876,-6.1358 0,-6.1358 -0.877,-5.2594 -1.753,-6.1357 -0.877,-6.1358 -1.753,-6.1359 -2.629,-5.2593 -1.753,-6.1358 -2.63,-5.2592 -2.63,-5.2594 -2.629,-5.2592 -3.507,-5.2593 -3.505,-5.2593 -3.507,-5.2592 -3.506,-4.3827 -4.383,-4.3828 -4.382,-4.3827 -4.384,-4.3827 -4.382,-4.3828 -4.383,-3.5062 -5.259,-3.5061 -5.259,-3.5062 -4.383,-3.5063 -6.136,-2.6296 -5.26,-2.6296 -5.259,-2.6297 -6.135,-1.753 -5.26,-2.6296 -6.135,-0.8766 -6.137,-1.753 -5.258,-0.8767 -6.137,-1.7531 -6.135,0 -6.136,-0.8765 -6.136,0 -6.135,0 -6.137,0.8765 -6.135,0 -6.137,1.7531 -5.258,0.8767 -6.136,1.753 -6.135,0.8766 -5.26,2.6296 -6.136,1.753 -5.259,2.6297 -5.26,2.6296 -5.259,2.6296 -5.259,3.5063 -5.259,3.5062 -5.259,3.5061 -4.383,3.5062 -4.383,4.3828 -4.383,4.3827 -4.383,4.3827 -4.383,4.3828 -3.506,4.3827 -3.506,5.2592 -3.506,5.2593 -3.507,5.2593 -2.629,5.2592 -2.63,5.2594 -2.63,5.2592 -1.752,6.1358 -2.63,5.2593 -1.753,6.1359 -0.876,6.1358 -1.754,6.1357 -0.876,5.2594 0,6.1358 -0.877,6.1358 0,6.1358 0,6.1359 0.877,6.1358 0,6.1359 0.876,6.1358 1.754,6.1358 0.876,5.2593 1.753,6.1358 2.63,5.2593 1.752,6.1358 2.63,5.2593 2.63,6.1358 2.629,5.2593 3.507,5.2592 3.506,4.3828 3.506,5.2592 3.506,4.3827 4.383,5.2594 4.383,4.3826 4.383,3.5063 4.383,4.3826 4.383,3.5063 5.259,3.5062 5.259,3.5062 5.259,3.5061 5.259,2.6296 5.26,2.6297 5.259,2.6296 6.136,2.6297 5.26,1.753 6.135,1.7532 6.136,0.8764 5.258,1.7533 6.137,0.8765 6.135,0.8764 6.137,0 6.135,0 6.136,0 6.136,0 6.135,-0.8764 6.137,-0.8765 5.258,-1.7533 6.137,-0.8764 6.135,-1.7532 5.26,-1.753 6.135,-2.6297 5.259,-2.6296 5.26,-2.6297 6.136,-2.6296 4.383,-3.5061 5.259,-3.5062 5.259,-3.5062 4.383,-3.5063 4.382,-4.3826 4.384,-3.5063 4.382,-4.3826 4.383,-5.2594 3.506,-4.3827 3.507,-5.2592 3.505,-4.3828 3.507,-5.2592 2.629,-5.2593 2.63,-6.1358 2.63,-5.2593 1.753,-6.1358 2.629,-5.2593 1.753,-6.1358 0.877,-5.2593 1.753,-6.1358 0.877,-6.1358 0,-6.1359 0.876,-6.1358 0,-6.1359 z" /><path
       style="fill:#387f89;fill-opacity:1;stroke:none"
       inkscape:connector-curvature="0"
       id="path64"
       d="m 14192.715,1371.1118 -0.877,-6.1358 0,-6.1358 -0.876,-6.1358 -0.878,-6.1359 -0.875,-6.1358 -1.754,-5.2593 -1.752,-6.1358 -1.753,-6.1358 -2.629,-5.2592 -1.754,-5.2594 -2.63,-6.1357 -3.506,-5.2594 -2.63,-5.2592 -3.506,-4.3828 -3.507,-5.2593 -4.381,-4.3827 -3.507,-5.2592 -4.383,-4.3828 -4.383,-4.3828 -4.382,-3.5062 -5.26,-3.5061 -4.383,-4.3827 -5.259,-2.6297 -5.259,-3.5062 -5.259,-2.6296 -5.259,-2.6296 -6.135,-2.6297 -5.26,-2.6296 -6.136,-1.7531 -5.259,-1.753 -6.137,-1.7532 -6.135,-0.8766 -6.136,-0.8765 -6.135,-0.8765 -6.137,0 -5.259,0 -6.136,0 -6.135,0 -6.137,0.8765 -6.135,0.8765 -6.136,0.8766 -6.135,1.7532 -5.26,1.753 -6.136,1.7531 -5.259,2.6296 -6.136,2.6297 -5.26,2.6296 -5.259,2.6296 -5.259,3.5062 -5.259,2.6297 -4.383,4.3827 -5.258,3.5061 -4.384,3.5062 -4.383,4.3828 -4.382,4.3828 -3.506,5.2592 -4.384,4.3827 -3.505,5.2593 -3.506,4.3828 -2.63,5.2592 -3.507,5.2594 -2.629,6.1357 -1.753,5.2594 -2.63,5.2592 -1.752,6.1358 -1.754,6.1358 -1.753,5.2593 -0.877,6.1358 -0.876,6.1359 -0.877,6.1358 0,6.1358 0,6.1358 0,6.1358 0,6.1358 0.877,5.2593 0.876,6.1358 0.877,6.1359 1.753,6.1358 1.754,6.1358 1.752,5.2593 2.63,6.1358 1.753,5.2593 2.629,5.2592 3.507,5.2594 2.63,5.2593 3.506,5.2592 3.505,5.2593 4.384,4.3828 3.506,4.3826 4.382,4.3828 4.383,4.3827 4.384,4.3827 5.258,3.5061 4.383,3.5063 5.259,3.5062 5.259,2.6296 5.259,3.5062 5.26,2.6297 6.136,2.6296 5.259,1.7531 6.136,1.7531 5.26,1.753 6.135,1.7532 6.136,0.8765 6.135,0.8765 6.137,0.8767 6.135,0.8765 6.136,0 5.259,0 6.137,-0.8765 6.135,-0.8767 6.136,-0.8765 6.135,-0.8765 6.137,-1.7532 5.259,-1.753 6.136,-1.7531 5.26,-1.7531 6.135,-2.6296 5.259,-2.6297 5.259,-3.5062 5.259,-2.6296 5.259,-3.5062 4.383,-3.5063 5.26,-3.5061 4.382,-4.3827 4.383,-4.3827 4.383,-4.3828 3.507,-4.3826 4.381,-4.3828 3.507,-5.2593 3.506,-5.2592 2.63,-5.2593 3.506,-5.2594 2.63,-5.2592 1.754,-5.2593 2.629,-6.1358 1.753,-5.2593 1.752,-6.1358 1.754,-6.1358 0.875,-6.1359 0.878,-6.1358 0.876,-5.2593 0,-6.1358 0.877,-6.1358 z" /><path
       style="fill:#387f89;fill-opacity:1;stroke:none;stroke-width:33.81119919;stroke-linejoin:round"
       inkscape:connector-curvature="0"
       id="path66"
       d="m 14192.715,1371.1118 -0.877,-6.1358 0,-6.1358 -0.876,-6.1358 -0.878,-6.1359 -0.875,-6.1358 -1.754,-5.2593 -1.752,-6.1358 -1.753,-6.1358 -2.629,-5.2592 -1.754,-5.2594 -2.63,-6.1357 -3.506,-5.2594 -2.63,-5.2592 -3.506,-4.3828 -3.507,-5.2593 -4.381,-4.3827 -3.507,-5.2592 -4.383,-4.3828 -4.383,-4.3828 -4.382,-3.5062 -5.26,-3.5061 -4.383,-4.3827 -5.259,-2.6297 -5.259,-3.5062 -5.259,-2.6296 -5.259,-2.6296 -6.135,-2.6297 -5.26,-2.6296 -6.136,-1.7531 -5.259,-1.753 -6.137,-1.7532 -6.135,-0.8766 -6.136,-0.8765 -6.135,-0.8765 -6.137,0 -5.259,0 -6.136,0 -6.135,0 -6.137,0.8765 -6.135,0.8765 -6.136,0.8766 -6.135,1.7532 -5.26,1.753 -6.136,1.7531 -5.259,2.6296 -6.136,2.6297 -5.26,2.6296 -5.259,2.6296 -5.259,3.5062 -5.259,2.6297 -4.383,4.3827 -5.258,3.5061 -4.384,3.5062 -4.383,4.3828 -4.382,4.3828 -3.506,5.2592 -4.384,4.3827 -3.505,5.2593 -3.506,4.3828 -2.63,5.2592 -3.507,5.2594 -2.629,6.1357 -1.753,5.2594 -2.63,5.2592 -1.752,6.1358 -1.754,6.1358 -1.753,5.2593 -0.877,6.1358 -0.876,6.1359 -0.877,6.1358 0,6.1358 0,6.1358 0,6.1358 0,6.1358 0.877,5.2593 0.876,6.1358 0.877,6.1359 1.753,6.1358 1.754,6.1358 1.752,5.2593 2.63,6.1358 1.753,5.2593 2.629,5.2592 3.507,5.2594 2.63,5.2593 3.506,5.2592 3.505,5.2593 4.384,4.3828 3.506,4.3826 4.382,4.3828 4.383,4.3827 4.384,4.3827 5.258,3.5061 4.383,3.5063 5.259,3.5062 5.259,2.6296 5.259,3.5062 5.26,2.6297 6.136,2.6296 5.259,1.7531 6.136,1.7531 5.26,1.753 6.135,1.7532 6.136,0.8765 6.135,0.8765 6.137,0.8767 6.135,0.8765 6.136,0 5.259,0 6.137,-0.8765 6.135,-0.8767 6.136,-0.8765 6.135,-0.8765 6.137,-1.7532 5.259,-1.753 6.136,-1.7531 5.26,-1.7531 6.135,-2.6296 5.259,-2.6297 5.259,-3.5062 5.259,-2.6296 5.259,-3.5062 4.383,-3.5063 5.26,-3.5061 4.382,-4.3827 4.383,-4.3827 4.383,-4.3828 3.507,-4.3826 4.381,-4.3828 3.507,-5.2593 3.506,-5.2592 2.63,-5.2593 3.506,-5.2594 2.63,-5.2592 1.754,-5.2593 2.629,-6.1358 1.753,-5.2593 1.752,-6.1358 1.754,-6.1358 0.875,-6.1359 0.878,-6.1358 0.876,-5.2593 0,-6.1358 0.877,-6.1358 z" /><text
       style="font-style:normal;font-variant:normal;font-weight:normal;font-stretch:normal;font-size:317.49996948px;font-family:serif;-inkscape-font-specification:serif;fill:#333333"
       y="-2468.6926"
       x="600.80359"
       id="text68"
       class="TextShape"><tspan
         style="font-style:normal;font-variant:normal;font-weight:normal;font-stretch:normal;font-size:317.49996948px;font-family:serif;-inkscape-font-specification:serif;fill:#333333"
         id="tspan70"
         font-weight="400"
         font-size="353px"
         class="TextParagraph"><tspan
           style="font-style:normal;font-variant:normal;font-weight:normal;font-stretch:normal;font-size:317.49996948px;font-family:serif;-inkscape-font-specification:serif;fill:#333333"
           id="tspan72"
           y="7048.5708"
           x="2490.1201"
           class="TextPosition" /><tspan
           style="font-style:normal;font-variant:normal;font-weight:normal;font-stretch:normal;font-size:317.49996948px;font-family:serif;-inkscape-font-specification:serif;fill:#333333"
           id="tspan74"
           y="7048.5708"
           x="2490.1201"
           class="TextPosition"><tspan
             style="font-style:normal;font-variant:normal;font-weight:normal;font-stretch:normal;font-size:317.49996948px;font-family:serif;-inkscape-font-specification:serif;fill:#333333;stroke:none"
             id="tspan76">2010</tspan></tspan></tspan></text>
<text
       style="font-style:normal;font-variant:normal;font-weight:normal;font-stretch:normal;font-size:317.49996948px;font-family:serif;-inkscape-font-specification:serif;fill:#333333"
       y="-2468.6926"
       x="-40.603603"
       id="text78"
       class="TextShape"><tspan
         style="font-style:normal;font-variant:normal;font-weight:normal;font-stretch:normal;font-size:317.49996948px;font-family:serif;-inkscape-font-specification:serif;fill:#333333"
         id="tspan80"
         font-weight="400"
         font-size="353px"
         class="TextParagraph"><tspan
           style="font-style:normal;font-variant:normal;font-weight:normal;font-stretch:normal;font-size:317.49996948px;font-family:serif;-inkscape-font-specification:serif;fill:#333333"
           id="tspan82"
           y="7048.5708"
           x="4374.1899"
           class="TextPosition" /><tspan
           style="font-style:normal;font-variant:normal;font-weight:normal;font-stretch:normal;font-size:317.49996948px;font-family:serif;-inkscape-font-specification:serif;fill:#333333"
           id="tspan84"
           y="7048.5708"
           x="4374.1899"
           class="TextPosition"><tspan
             style="font-style:normal;font-variant:normal;font-weight:normal;font-stretch:normal;font-size:317.49996948px;font-family:serif;-inkscape-font-specification:serif;fill:#333333;stroke:none"
             id="tspan86">2011</tspan></tspan></tspan></text>
<text
       style="font-style:normal;font-variant:normal;font-weight:normal;font-stretch:normal;font-size:317.49996948px;font-family:serif;-inkscape-font-specification:serif;fill:#333333"
       y="-2468.6926"
       x="-702.20013"
       id="text88"
       class="TextShape"><tspan
         style="font-style:normal;font-variant:normal;font-weight:normal;font-stretch:normal;font-size:317.49996948px;font-family:serif;-inkscape-font-specification:serif;fill:#333333"
         id="tspan90"
         font-weight="400"
         font-size="353px"
         class="TextParagraph"><tspan
           style="font-style:normal;font-variant:normal;font-weight:normal;font-stretch:normal;font-size:317.49996948px;font-family:serif;-inkscape-font-specification:serif;fill:#333333"
           id="tspan92"
           y="7048.5708"
           x="6239.269"
           class="TextPosition" /><tspan
           style="font-style:normal;font-variant:normal;font-weight:normal;font-stretch:normal;font-size:317.49996948px;font-family:serif;-inkscape-font-specification:serif;fill:#333333"
           id="tspan94"
           y="7048.5708"
           x="6239.269"
           class="TextPosition"><tspan
             style="font-style:normal;font-variant:normal;font-weight:normal;font-stretch:normal;font-size:317.49996948px;font-family:serif;-inkscape-font-specification:serif;fill:#333333;stroke:none"
             id="tspan96">2012</tspan></tspan></tspan></text>
<text
       style="font-style:normal;font-variant:normal;font-weight:normal;font-stretch:normal;font-size:317.49996948px;font-family:serif;-inkscape-font-specification:serif;fill:#333333"
       y="-2468.6926"
       x="-1359.4193"
       id="text98"
       class="TextShape"><tspan
         style="font-style:normal;font-variant:normal;font-weight:normal;font-stretch:normal;font-size:317.49996948px;font-family:serif;-inkscape-font-specification:serif;fill:#333333"
         id="tspan100"
         font-weight="400"
         font-size="353px"
         class="TextParagraph"><tspan
           style="font-style:normal;font-variant:normal;font-weight:normal;font-stretch:normal;font-size:317.49996948px;font-family:serif;-inkscape-font-specification:serif;fill:#333333"
           id="tspan102"
           y="7048.5708"
           x="8107.5254"
           class="TextPosition" /><tspan
           style="font-style:normal;font-variant:normal;font-weight:normal;font-stretch:normal;font-size:317.49996948px;font-family:serif;-inkscape-font-specification:serif;fill:#333333"
           id="tspan104"
           y="7048.5708"
           x="8107.5254"
           class="TextPosition"><tspan
             style="font-style:normal;font-variant:normal;font-weight:normal;font-stretch:normal;font-size:317.49996948px;font-family:serif;-inkscape-font-specification:serif;fill:#333333;stroke:none"
             id="tspan106">2013</tspan></tspan></tspan></text>
<text
       style="font-style:normal;font-variant:normal;font-weight:normal;font-stretch:normal;font-size:317.49996948px;font-family:serif;-inkscape-font-specification:serif;fill:#333333"
       y="-2468.6924"
       x="-2017.8375"
       id="text108"
       class="TextShape"><tspan
         style="font-style:normal;font-variant:normal;font-weight:normal;font-stretch:normal;font-size:317.49996948px;font-family:serif;-inkscape-font-specification:serif;fill:#333333"
         id="tspan110"
         font-weight="400"
         font-size="353px"
         class="TextParagraph"><tspan
           style="font-style:normal;font-variant:normal;font-weight:normal;font-stretch:normal;font-size:317.49996948px;font-family:serif;-inkscape-font-specification:serif;fill:#333333"
           id="tspan112"
           y="7048.5708"
           x="9975.7822"
           class="TextPosition" /><tspan
           style="font-style:normal;font-variant:normal;font-weight:normal;font-stretch:normal;font-size:317.49996948px;font-family:serif;-inkscape-font-specification:serif;fill:#333333"
           id="tspan114"
           y="7048.5708"
           x="9975.7822"
           class="TextPosition"><tspan
             style="font-style:normal;font-variant:normal;font-weight:normal;font-stretch:normal;font-size:317.49996948px;font-family:serif;-inkscape-font-specification:serif;fill:#333333;stroke:none"
             id="tspan116">2014</tspan></tspan></tspan></text>
<text
       style="font-style:normal;font-variant:normal;font-weight:normal;font-stretch:normal;font-size:317.49996948px;font-family:serif;-inkscape-font-specification:serif;fill:#333333"
       y="-2468.6924"
       x="-2668.7017"
       id="text118"
       class="TextShape"><tspan
         style="font-style:normal;font-variant:normal;font-weight:normal;font-stretch:normal;font-size:317.49996948px;font-family:serif;-inkscape-font-specification:serif;fill:#333333"
         id="tspan120"
         font-weight="400"
         font-size="353px"
         class="TextParagraph"><tspan
           style="font-style:normal;font-variant:normal;font-weight:normal;font-stretch:normal;font-size:317.49996948px;font-family:serif;-inkscape-font-specification:serif;fill:#333333"
           id="tspan122"
           y="7048.5708"
           x="11850.396"
           class="TextPosition" /><tspan
           style="font-style:normal;font-variant:normal;font-weight:normal;font-stretch:normal;font-size:317.49996948px;font-family:serif;-inkscape-font-specification:serif;fill:#333333"
           id="tspan124"
           y="7048.5708"
           x="11850.396"
           class="TextPosition"><tspan
             style="font-style:normal;font-variant:normal;font-weight:normal;font-stretch:normal;font-size:317.49996948px;font-family:serif;-inkscape-font-specification:serif;fill:#333333;stroke:none"
             id="tspan126">2020</tspan></tspan></tspan></text>
<text
       style="font-style:normal;font-variant:normal;font-weight:normal;font-stretch:normal;font-size:317.49996948px;font-family:serif;-inkscape-font-specification:serif;fill:#333333"
       y="-2468.6924"
       x="-3323.3193"
       id="text128"
       class="TextShape"><tspan
         style="font-style:normal;font-variant:normal;font-weight:normal;font-stretch:normal;font-size:317.49996948px;font-family:serif;-inkscape-font-specification:serif;fill:#333333"
         id="tspan130"
         font-weight="400"
         font-size="353px"
         class="TextParagraph"><tspan
           style="font-style:normal;font-variant:normal;font-weight:normal;font-stretch:normal;font-size:317.49996948px;font-family:serif;-inkscape-font-specification:serif;fill:#333333"
           id="tspan132"
           y="7048.5708"
           x="13722.452"
           class="TextPosition" /><tspan
           style="font-style:normal;font-variant:normal;font-weight:normal;font-stretch:normal;font-size:317.49996948px;font-family:serif;-inkscape-font-specification:serif;fill:#333333"
           id="tspan134"
           y="7048.5708"
           x="13722.452"
           class="TextPosition"><tspan
             style="font-style:normal;font-variant:normal;font-weight:normal;font-stretch:normal;font-size:317.49996948px;font-family:serif;-inkscape-font-specification:serif;fill:#333333;stroke:none"
             id="tspan136">2030</tspan></tspan></tspan></text>
<text
       style="font-style:normal;font-variant:normal;font-weight:normal;font-stretch:normal;font-size:317.49996948px;font-family:serif;-inkscape-font-specification:serif;fill:#333333"
       y="-2632.1978"
       x="208.39134"
       id="text138"
       class="TextShape"><tspan
         style="font-style:normal;font-variant:normal;font-weight:normal;font-stretch:normal;font-size:317.49996948px;font-family:serif;-inkscape-font-specification:serif;fill:#333333"
         id="tspan140"
         font-weight="400"
         font-size="353px"
         class="TextParagraph"><tspan
           style="font-style:normal;font-variant:normal;font-weight:normal;font-stretch:normal;font-size:317.49996948px;font-family:serif;-inkscape-font-specification:serif;fill:#333333"
           id="tspan142"
           y="6529.2461"
           x="2200.7395"
           class="TextPosition" /><tspan
           style="font-style:normal;font-variant:normal;font-weight:normal;font-stretch:normal;font-size:317.49996948px;font-family:serif;-inkscape-font-specification:serif;fill:#333333"
           id="tspan144"
           y="6529.2461"
           x="2200.7395"
           class="TextPosition"><tspan
             style="font-style:normal;font-variant:normal;font-weight:normal;font-stretch:normal;font-size:317.49996948px;font-family:serif;-inkscape-font-specification:serif;fill:#333333;stroke:none"
             id="tspan146">0</tspan></tspan></tspan></text>
<text
       style="font-style:normal;font-variant:normal;font-weight:normal;font-stretch:normal;font-size:317.49996948px;font-family:serif;-inkscape-font-specification:serif;fill:#333333"
       y="-2250.4851"
       x="287.50934"
       id="text148"
       class="TextShape"><tspan
         style="font-style:normal;font-variant:normal;font-weight:normal;font-stretch:normal;font-size:317.49996948px;font-family:serif;-inkscape-font-specification:serif;fill:#333333"
         id="tspan150"
         font-weight="400"
         font-size="353px"
         class="TextParagraph"><tspan
           style="font-style:normal;font-variant:normal;font-weight:normal;font-stretch:normal;font-size:317.49996948px;font-family:serif;-inkscape-font-specification:serif;fill:#333333"
           id="tspan152"
           y="5484.0874"
           x="1392.1058"
           class="TextPosition" /><tspan
           style="font-style:normal;font-variant:normal;font-weight:normal;font-stretch:normal;font-size:317.49996948px;font-family:serif;-inkscape-font-specification:serif;fill:#333333"
           id="tspan154"
           y="5484.0874"
           x="1392.1058"
           class="TextPosition"><tspan
             style="font-style:normal;font-variant:normal;font-weight:normal;font-stretch:normal;font-size:317.49996948px;font-family:serif;-inkscape-font-specification:serif;fill:#333333;stroke:none"
             id="tspan156">50000</tspan></tspan></tspan></text>
<text
       style="font-style:normal;font-variant:normal;font-weight:normal;font-stretch:normal;font-size:317.49996948px;font-family:serif;-inkscape-font-specification:serif;fill:#333333"
       y="-1868.7745"
       x="306.98938"
       id="text158"
       class="TextShape"><tspan
         style="font-style:normal;font-variant:normal;font-weight:normal;font-stretch:normal;font-size:317.49996948px;font-family:serif;-inkscape-font-specification:serif;fill:#333333"
         id="tspan160"
         font-weight="400"
         font-size="353px"
         class="TextParagraph"><tspan
           style="font-style:normal;font-variant:normal;font-weight:normal;font-stretch:normal;font-size:317.49996948px;font-family:serif;-inkscape-font-specification:serif;fill:#333333"
           id="tspan162"
           y="4438.9282"
           x="1189.9476"
           class="TextPosition" /><tspan
           style="font-style:normal;font-variant:normal;font-weight:normal;font-stretch:normal;font-size:317.49996948px;font-family:serif;-inkscape-font-specification:serif;fill:#333333"
           id="tspan164"
           y="4438.9282"
           x="1189.9476"
           class="TextPosition"><tspan
             style="font-style:normal;font-variant:normal;font-weight:normal;font-stretch:normal;font-size:317.49996948px;font-family:serif;-inkscape-font-specification:serif;fill:#333333;stroke:none"
             id="tspan166">100000</tspan></tspan></tspan></text>
<text
       style="font-style:normal;font-variant:normal;font-weight:normal;font-stretch:normal;font-size:317.49996948px;font-family:serif;-inkscape-font-specification:serif;fill:#333333"
       y="-1487.0626"
       x="306.98926"
       id="text168"
       class="TextShape"><tspan
         style="font-style:normal;font-variant:normal;font-weight:normal;font-stretch:normal;font-size:317.49996948px;font-family:serif;-inkscape-font-specification:serif;fill:#333333"
         id="tspan170"
         font-weight="400"
         font-size="353px"
         class="TextParagraph"><tspan
           style="font-style:normal;font-variant:normal;font-weight:normal;font-stretch:normal;font-size:317.49996948px;font-family:serif;-inkscape-font-specification:serif;fill:#333333"
           id="tspan172"
           y="3393.77"
           x="1189.9476"
           class="TextPosition" /><tspan
           style="font-style:normal;font-variant:normal;font-weight:normal;font-stretch:normal;font-size:317.49996948px;font-family:serif;-inkscape-font-specification:serif;fill:#333333"
           id="tspan174"
           y="3393.77"
           x="1189.9476"
           class="TextPosition"><tspan
             style="font-style:normal;font-variant:normal;font-weight:normal;font-stretch:normal;font-size:317.49996948px;font-family:serif;-inkscape-font-specification:serif;fill:#333333;stroke:none"
             id="tspan176">150000</tspan></tspan></tspan></text>
<text
       style="font-style:normal;font-variant:normal;font-weight:normal;font-stretch:normal;font-size:317.49996948px;font-family:serif;-inkscape-font-specification:serif;fill:#333333"
       y="-1106.5486"
       x="306.9895"
       id="text178"
       class="TextShape"><tspan
         style="font-style:normal;font-variant:normal;font-weight:normal;font-stretch:normal;font-size:317.49996948px;font-family:serif;-inkscape-font-specification:serif;fill:#333333"
         id="tspan180"
         font-weight="400"
         font-size="353px"
         class="TextParagraph"><tspan
           style="font-style:normal;font-variant:normal;font-weight:normal;font-stretch:normal;font-size:317.49996948px;font-family:serif;-inkscape-font-specification:serif;fill:#333333"
           id="tspan182"
           y="2348.6111"
           x="1189.9476"
           class="TextPosition" /><tspan
           style="font-style:normal;font-variant:normal;font-weight:normal;font-stretch:normal;font-size:317.49996948px;font-family:serif;-inkscape-font-specification:serif;fill:#333333"
           id="tspan184"
           y="2348.6111"
           x="1189.9476"
           class="TextPosition"><tspan
             style="font-style:normal;font-variant:normal;font-weight:normal;font-stretch:normal;font-size:317.49996948px;font-family:serif;-inkscape-font-specification:serif;fill:#333333;stroke:none"
             id="tspan186">200000</tspan></tspan></tspan></text>
<text
       style="font-style:normal;font-variant:normal;font-weight:normal;font-stretch:normal;font-size:317.49996948px;font-family:serif;-inkscape-font-specification:serif;fill:#333333"
       y="-724.83716"
       x="306.98938"
       id="text188"
       class="TextShape"><tspan
         style="font-style:normal;font-variant:normal;font-weight:normal;font-stretch:normal;font-size:317.49996948px;font-family:serif;-inkscape-font-specification:serif;fill:#333333"
         id="tspan190"
         font-weight="400"
         font-size="353px"
         class="TextParagraph"><tspan
           style="font-style:normal;font-variant:normal;font-weight:normal;font-stretch:normal;font-size:317.49996948px;font-family:serif;-inkscape-font-specification:serif;fill:#333333"
           id="tspan192"
           y="1303.4515"
           x="1189.9476"
           class="TextPosition" /><tspan
           style="font-style:normal;font-variant:normal;font-weight:normal;font-stretch:normal;font-size:317.49996948px;font-family:serif;-inkscape-font-specification:serif;fill:#333333"
           id="tspan194"
           y="1303.4515"
           x="1189.9476"
           class="TextPosition"><tspan
             style="font-style:normal;font-variant:normal;font-weight:normal;font-stretch:normal;font-size:317.49996948px;font-family:serif;-inkscape-font-specification:serif;fill:#333333;stroke:none"
             id="tspan196">250000</tspan></tspan></tspan></text>
<text
       style="font-style:normal;font-variant:normal;font-weight:normal;font-stretch:normal;font-size:317.49996948px;font-family:serif;-inkscape-font-specification:serif;fill:#333333"
       y="-343.12524"
       x="306.98926"
       id="text198"
       class="TextShape"><tspan
         style="font-style:normal;font-variant:normal;font-weight:normal;font-stretch:normal;font-size:317.49996948px;font-family:serif;-inkscape-font-specification:serif;fill:#333333"
         id="tspan200"
         font-weight="400"
         font-size="353px"
         class="TextParagraph"><tspan
           style="font-style:normal;font-variant:normal;font-weight:normal;font-stretch:normal;font-size:317.49996948px;font-family:serif;-inkscape-font-specification:serif;fill:#333333"
           id="tspan202"
           y="258.29315"
           x="1189.9476"
           class="TextPosition" /><tspan
           style="font-style:normal;font-variant:normal;font-weight:normal;font-stretch:normal;font-size:317.49996948px;font-family:serif;-inkscape-font-specification:serif;fill:#333333"
           id="tspan204"
           y="258.29315"
           x="1189.9476"
           class="TextPosition"><tspan
             style="font-style:normal;font-variant:normal;font-weight:normal;font-stretch:normal;font-size:317.49996948px;font-family:serif;-inkscape-font-specification:serif;fill:#333333;stroke:none"
             id="tspan206">300000</tspan></tspan></tspan></text>
<text
       style="font-style:normal;font-variant:normal;font-weight:bold;font-stretch:normal;font-size:317.49996948px;font-family:serif;-inkscape-font-specification:'serif Bold';fill:#333333"
       y="-825.05798"
       x="-8376.1104"
       id="text208"
       class="TextShape"><tspan
         style="font-style:normal;font-variant:normal;font-weight:bold;font-stretch:normal;font-size:317.49996948px;font-family:serif;-inkscape-font-specification:'serif Bold';fill:#333333"
         id="tspan210"
         font-weight="700"
         font-size="353px"
         class="TextParagraph"><tspan
           style="font-style:normal;font-variant:normal;font-weight:bold;font-stretch:normal;font-size:317.49996948px;font-family:serif;-inkscape-font-specification:'serif Bold';fill:#333333"
           id="tspan212"
           y="7757.7314"
           x="7623.769"
           class="TextPosition" /><tspan
           style="font-style:normal;font-variant:normal;font-weight:bold;font-stretch:normal;font-size:317.49996948px;font-family:serif;-inkscape-font-specification:'serif Bold';fill:#333333"
           id="tspan214"
           y="7757.7314"
           x="7623.769"
           class="TextPosition"><tspan
             style="font-style:normal;font-variant:normal;font-weight:bold;font-stretch:normal;font-size:317.49996948px;font-family:serif;-inkscape-font-specification:'serif Bold';fill:#333333;stroke:none"
             id="tspan216">Year</tspan></tspan></tspan></text>
<text
       style="font-style:normal;font-variant:normal;font-weight:bold;font-stretch:normal;font-size:317.49996948px;font-family:serif;-inkscape-font-specification:'serif Bold';fill:#333333"
       y="-2622.6328"
       x="-8437.9697"
       id="text218"
       transform="matrix(0,-1,1,0,0,0)"
       class="TextShape"><tspan
         style="font-style:normal;font-variant:normal;font-weight:bold;font-stretch:normal;font-size:317.49996948px;font-family:serif;-inkscape-font-specification:'serif Bold';fill:#333333;stroke:none"
         id="tspan224"
         y="304.1893"
         x="-4969.6318"
         class="TextPosition">Number of Inhabitants</tspan><tspan
         id="tspan8203"
         style="font-style:normal;font-variant:normal;font-weight:bold;font-stretch:normal;font-size:317.49996948px;font-family:serif;-inkscape-font-specification:'serif Bold';fill:#333333;stroke:none"
         y="304.1893"
         x="-4969.6318"
         class="TextPosition" /><tspan
         id="tspan8205"
         style="font-style:normal;font-variant:normal;font-weight:bold;font-stretch:normal;font-size:317.49996948px;font-family:serif;-inkscape-font-specification:'serif Bold';fill:#333333;stroke:none"
         y="304.1893"
         x="-4969.6318"
         class="TextPosition" /><tspan
         id="tspan8207"
         style="font-style:normal;font-variant:normal;font-weight:bold;font-stretch:normal;font-size:317.49996948px;font-family:serif;-inkscape-font-specification:'serif Bold';fill:#333333;stroke:none"
         y="304.1893"
         x="-4969.6318"
         class="TextPosition" /></text>
<path
       style="fill:#387f89;fill-opacity:1;stroke:none;stroke-width:33.81119919;stroke-linejoin:round"
       inkscape:connector-curvature="0"
       id="path62-6"
       d="m 11424.668,5783.0081 0,-8.386 -1.198,-8.387 0,-8.386 -1.198,-7.188 -2.396,-8.387 -1.199,-8.386 -2.395,-8.386 -3.594,-7.189 -2.397,-8.386 -3.594,-7.188 -3.594,-7.188 -3.594,-7.189 -4.792,-7.188 -4.792,-7.188 -4.793,-7.188 -4.791,-5.991 -5.991,-5.99 -5.99,-5.99 -5.991,-5.99 -5.99,-5.99 -5.99,-4.793 -7.188,-4.792 -7.188,-4.792 -5.991,-4.792 -8.386,-3.594 -7.189,-3.594 -7.188,-3.595 -8.386,-2.396 -7.188,-3.594 -8.386,-1.198 -8.387,-2.396 -7.188,-1.198 -8.387,-2.396 -8.385,0 -8.387,-1.198 -8.387,0 -8.385,0 -8.387,1.198 -8.386,0 -8.387,2.396 -7.188,1.198 -8.386,2.396 -8.386,1.198 -7.188,3.594 -8.387,2.396 -7.188,3.595 -7.189,3.594 -7.188,3.594 -7.188,4.792 -7.188,4.792 -7.188,4.792 -5.99,4.793 -5.991,5.99 -5.99,5.99 -5.991,5.99 -5.99,5.99 -4.792,5.991 -4.792,7.188 -4.792,7.188 -4.793,7.188 -3.594,7.189 -3.594,7.188 -3.594,7.188 -2.396,8.386 -3.594,7.189 -2.396,8.386 -1.198,8.386 -2.397,8.387 -1.197,7.188 0,8.386 -1.198,8.387 0,8.386 0,8.386 1.198,8.387 0,8.386 1.197,8.386 2.397,8.386 1.198,7.189 2.396,8.386 3.594,7.188 2.396,8.387 3.594,7.188 3.594,8.386 3.594,7.189 4.793,7.188 4.792,5.99 4.792,7.188 4.792,5.99 5.99,7.189 5.991,5.99 5.99,4.792 5.991,5.99 5.99,4.792 7.188,4.793 7.188,4.792 7.188,4.792 7.188,3.594 7.189,3.594 7.188,3.594 8.387,3.595 7.188,2.396 8.386,2.396 8.386,1.198 7.188,2.396 8.387,1.198 8.386,1.198 8.387,0 8.385,0 8.387,0 8.387,0 8.385,-1.198 8.387,-1.198 7.188,-2.396 8.387,-1.198 8.386,-2.396 7.188,-2.396 8.386,-3.595 7.188,-3.594 7.189,-3.594 8.386,-3.594 5.991,-4.792 7.188,-4.792 7.188,-4.793 5.99,-4.792 5.99,-5.99 5.991,-4.792 5.99,-5.99 5.991,-7.189 4.791,-5.99 4.793,-7.188 4.792,-5.99 4.792,-7.188 3.594,-7.189 3.594,-8.386 3.594,-7.188 2.397,-8.387 3.594,-7.188 2.395,-8.386 1.199,-7.189 2.396,-8.386 1.198,-8.386 0,-8.386 1.198,-8.387 0,-8.386 z" /><text
       style="font-style:normal;font-variant:normal;font-weight:normal;font-stretch:normal;font-size:317.49996948px;font-family:serif;-inkscape-font-specification:serif;fill:#333333"
       y="-2683.1094"
       x="-4246.7778"
       id="text208-0"
       class="TextShape"><tspan
         style="font-style:normal;font-variant:normal;font-weight:normal;font-stretch:normal;font-size:317.49996948px;font-family:serif;-inkscape-font-specification:serif;fill:#333333"
         id="tspan210-1"
         font-weight="700"
         font-size="353px"
         class="TextParagraph"><tspan
           style="font-style:normal;font-variant:normal;font-weight:normal;font-stretch:normal;font-size:317.49996948px;font-family:serif;-inkscape-font-specification:serif;fill:#333333;stroke:none"
           id="tspan214-5"
           y="5899.6807"
           x="11753.102"
           class="TextPosition">Total 55 plus</tspan></tspan></text>
</g></svg>